<mxfile host="app.diagrams.net" agent="Mozilla/5.0 (Windows NT 10.0; Win64; x64) AppleWebKit/537.36 (KHTML, like Gecko) Chrome/133.0.0.0 Safari/537.36 OPR/118.0.0.0" version="27.0.2">
  <diagram name="PÃ¡gina-1" id="LHy_FwT5QbHLbnz2iiKJ">
    <mxGraphModel dx="1465" dy="732" grid="0" gridSize="10" guides="1" tooltips="1" connect="1" arrows="1" fold="1" page="0" pageScale="1" pageWidth="827" pageHeight="1169" math="0" shadow="0">
      <root>
        <mxCell id="0" />
        <mxCell id="1" parent="0" />
        <mxCell id="Ppk1s_15XKvyTgP_9-k_-24" value="Clientes" style="shape=umlLifeline;perimeter=lifelinePerimeter;whiteSpace=wrap;html=1;container=1;dropTarget=0;collapsible=0;recursiveResize=0;outlineConnect=0;portConstraint=eastwest;newEdgeStyle={&quot;curved&quot;:0,&quot;rounded&quot;:0};" parent="1" vertex="1">
          <mxGeometry x="80" y="40" width="100" height="905" as="geometry" />
        </mxCell>
        <mxCell id="Ppk1s_15XKvyTgP_9-k_-25" value="Abogados" style="shape=umlLifeline;perimeter=lifelinePerimeter;whiteSpace=wrap;html=1;container=1;dropTarget=0;collapsible=0;recursiveResize=0;outlineConnect=0;portConstraint=eastwest;newEdgeStyle={&quot;curved&quot;:0,&quot;rounded&quot;:0};" parent="1" vertex="1">
          <mxGeometry x="240" y="40" width="100" height="903" as="geometry" />
        </mxCell>
        <mxCell id="Ppk1s_15XKvyTgP_9-k_-26" value="Sistema Legal" style="shape=umlLifeline;perimeter=lifelinePerimeter;whiteSpace=wrap;html=1;container=1;dropTarget=0;collapsible=0;recursiveResize=0;outlineConnect=0;portConstraint=eastwest;newEdgeStyle={&quot;curved&quot;:0,&quot;rounded&quot;:0};" parent="1" vertex="1">
          <mxGeometry x="400" y="40" width="100" height="893" as="geometry" />
        </mxCell>
        <mxCell id="Ppk1s_15XKvyTgP_9-k_-27" value="Frontend" style="shape=umlLifeline;perimeter=lifelinePerimeter;whiteSpace=wrap;html=1;container=1;dropTarget=0;collapsible=0;recursiveResize=0;outlineConnect=0;portConstraint=eastwest;newEdgeStyle={&quot;curved&quot;:0,&quot;rounded&quot;:0};" parent="1" vertex="1">
          <mxGeometry x="560" y="40" width="100" height="897" as="geometry" />
        </mxCell>
        <mxCell id="Ppk1s_15XKvyTgP_9-k_-28" value="Backend" style="shape=umlLifeline;perimeter=lifelinePerimeter;whiteSpace=wrap;html=1;container=1;dropTarget=0;collapsible=0;recursiveResize=0;outlineConnect=0;portConstraint=eastwest;newEdgeStyle={&quot;curved&quot;:0,&quot;rounded&quot;:0};" parent="1" vertex="1">
          <mxGeometry x="720" y="40" width="100" height="904" as="geometry" />
        </mxCell>
        <mxCell id="Ppk1s_15XKvyTgP_9-k_-29" value="Base de Datos" style="shape=umlLifeline;perimeter=lifelinePerimeter;whiteSpace=wrap;html=1;container=1;dropTarget=0;collapsible=0;recursiveResize=0;outlineConnect=0;portConstraint=eastwest;newEdgeStyle={&quot;curved&quot;:0,&quot;rounded&quot;:0};" parent="1" vertex="1">
          <mxGeometry x="880" y="40" width="100" height="907" as="geometry" />
        </mxCell>
        <mxCell id="Ppk1s_15XKvyTgP_9-k_-30" value="" style="endArrow=classic;html=1;rounded=0;" parent="1" edge="1" source="Ppk1s_15XKvyTgP_9-k_-24">
          <mxGeometry width="50" height="50" relative="1" as="geometry">
            <mxPoint x="290.08666666666653" y="120" as="sourcePoint" />
            <mxPoint x="609.92" y="120" as="targetPoint" />
          </mxGeometry>
        </mxCell>
        <mxCell id="Ppk1s_15XKvyTgP_9-k_-31" value="1. Crear nuevo caso" style="text;html=1;align=center;verticalAlign=middle;resizable=0;points=[];autosize=1;strokeColor=none;fillColor=none;" parent="1" vertex="1">
          <mxGeometry x="305" y="87" width="130" height="30" as="geometry" />
        </mxCell>
        <mxCell id="Ppk1s_15XKvyTgP_9-k_-33" value="" style="endArrow=classic;html=1;rounded=0;" parent="1" edge="1">
          <mxGeometry width="50" height="50" relative="1" as="geometry">
            <mxPoint x="609.6666666666665" y="130" as="sourcePoint" />
            <mxPoint x="769.5" y="130" as="targetPoint" />
          </mxGeometry>
        </mxCell>
        <mxCell id="Ppk1s_15XKvyTgP_9-k_-34" value="Datos del Caso" style="text;html=1;align=center;verticalAlign=middle;resizable=0;points=[];autosize=1;strokeColor=none;fillColor=none;" parent="1" vertex="1">
          <mxGeometry x="640" y="100" width="110" height="30" as="geometry" />
        </mxCell>
        <mxCell id="Ppk1s_15XKvyTgP_9-k_-35" value="" style="endArrow=classic;html=1;rounded=0;" parent="1" source="Ppk1s_15XKvyTgP_9-k_-28" target="Ppk1s_15XKvyTgP_9-k_-29" edge="1">
          <mxGeometry width="50" height="50" relative="1" as="geometry">
            <mxPoint x="830" y="240" as="sourcePoint" />
            <mxPoint x="880" y="190" as="targetPoint" />
            <Array as="points">
              <mxPoint x="850" y="140" />
            </Array>
          </mxGeometry>
        </mxCell>
        <mxCell id="Ppk1s_15XKvyTgP_9-k_-37" value="Insertar Datos" style="text;html=1;align=center;verticalAlign=middle;resizable=0;points=[];autosize=1;strokeColor=none;fillColor=none;" parent="1" vertex="1">
          <mxGeometry x="800" y="110" width="100" height="30" as="geometry" />
        </mxCell>
        <mxCell id="Ppk1s_15XKvyTgP_9-k_-41" value="Confirmacion" style="text;html=1;align=center;verticalAlign=middle;resizable=0;points=[];autosize=1;strokeColor=none;fillColor=none;" parent="1" vertex="1">
          <mxGeometry x="800" y="150" width="90" height="30" as="geometry" />
        </mxCell>
        <mxCell id="Ppk1s_15XKvyTgP_9-k_-45" value="Caso Creado" style="text;html=1;align=center;verticalAlign=middle;resizable=0;points=[];autosize=1;strokeColor=none;fillColor=none;" parent="1" vertex="1">
          <mxGeometry x="650" y="160" width="90" height="30" as="geometry" />
        </mxCell>
        <mxCell id="Ppk1s_15XKvyTgP_9-k_-47" value="Notificacion &quot;Caso Registrado&lt;span style=&quot;background-color: transparent; color: light-dark(rgb(0, 0, 0), rgb(255, 255, 255));&quot;&gt;&quot;&lt;/span&gt;" style="text;html=1;align=center;verticalAlign=middle;resizable=0;points=[];autosize=1;strokeColor=none;fillColor=none;" parent="1" vertex="1">
          <mxGeometry x="355" y="170" width="190" height="30" as="geometry" />
        </mxCell>
        <mxCell id="Ppk1s_15XKvyTgP_9-k_-48" value="" style="endArrow=classic;html=1;rounded=0;" parent="1" target="Ppk1s_15XKvyTgP_9-k_-27" edge="1">
          <mxGeometry width="50" height="50" relative="1" as="geometry">
            <mxPoint x="289.6666666666665" y="250" as="sourcePoint" />
            <mxPoint x="449.5" y="250" as="targetPoint" />
          </mxGeometry>
        </mxCell>
        <mxCell id="Ppk1s_15XKvyTgP_9-k_-49" value="2. Subir Documento" style="text;html=1;align=center;verticalAlign=middle;resizable=0;points=[];autosize=1;strokeColor=none;fillColor=none;" parent="1" vertex="1">
          <mxGeometry x="385" y="220" width="130" height="30" as="geometry" />
        </mxCell>
        <mxCell id="Ppk1s_15XKvyTgP_9-k_-52" value="" style="endArrow=classic;html=1;rounded=0;" parent="1" edge="1">
          <mxGeometry width="50" height="50" relative="1" as="geometry">
            <mxPoint x="609.6666666666665" y="260" as="sourcePoint" />
            <mxPoint x="769.5" y="260" as="targetPoint" />
          </mxGeometry>
        </mxCell>
        <mxCell id="Ppk1s_15XKvyTgP_9-k_-53" value="" style="endArrow=classic;html=1;rounded=0;" parent="1" edge="1">
          <mxGeometry width="50" height="50" relative="1" as="geometry">
            <mxPoint x="770.0866666666665" y="270" as="sourcePoint" />
            <mxPoint x="929.92" y="270" as="targetPoint" />
          </mxGeometry>
        </mxCell>
        <mxCell id="Ppk1s_15XKvyTgP_9-k_-57" value="" style="endArrow=classic;html=1;rounded=0;" parent="1" target="Ppk1s_15XKvyTgP_9-k_-27" edge="1">
          <mxGeometry width="50" height="50" relative="1" as="geometry">
            <mxPoint x="289.6666666666665" y="390" as="sourcePoint" />
            <mxPoint x="449.5" y="390" as="targetPoint" />
          </mxGeometry>
        </mxCell>
        <mxCell id="Ppk1s_15XKvyTgP_9-k_-58" value="" style="endArrow=classic;html=1;rounded=0;" parent="1" edge="1">
          <mxGeometry width="50" height="50" relative="1" as="geometry">
            <mxPoint x="609.6666666666665" y="400" as="sourcePoint" />
            <mxPoint x="769.5" y="400" as="targetPoint" />
          </mxGeometry>
        </mxCell>
        <mxCell id="Ppk1s_15XKvyTgP_9-k_-59" value="" style="endArrow=classic;html=1;rounded=0;" parent="1" edge="1">
          <mxGeometry width="50" height="50" relative="1" as="geometry">
            <mxPoint x="770.0866666666665" y="410" as="sourcePoint" />
            <mxPoint x="929.92" y="410" as="targetPoint" />
          </mxGeometry>
        </mxCell>
        <mxCell id="Ppk1s_15XKvyTgP_9-k_-60" value="Documentos del Caso" style="text;html=1;align=center;verticalAlign=middle;resizable=0;points=[];autosize=1;strokeColor=none;fillColor=none;" parent="1" vertex="1">
          <mxGeometry x="620" y="229" width="140" height="30" as="geometry" />
        </mxCell>
        <mxCell id="Ppk1s_15XKvyTgP_9-k_-62" value="Insertar documentos" style="text;html=1;align=center;verticalAlign=middle;resizable=0;points=[];autosize=1;strokeColor=none;fillColor=none;" parent="1" vertex="1">
          <mxGeometry x="785" y="240" width="130" height="30" as="geometry" />
        </mxCell>
        <mxCell id="Ppk1s_15XKvyTgP_9-k_-64" value="Confirmacion" style="text;html=1;align=center;verticalAlign=middle;resizable=0;points=[];autosize=1;strokeColor=none;fillColor=none;" parent="1" vertex="1">
          <mxGeometry x="810" y="288" width="90" height="30" as="geometry" />
        </mxCell>
        <mxCell id="Ppk1s_15XKvyTgP_9-k_-65" value="Documento Guardado" style="text;html=1;align=center;verticalAlign=middle;resizable=0;points=[];autosize=1;strokeColor=none;fillColor=none;" parent="1" vertex="1">
          <mxGeometry x="620" y="296" width="140" height="30" as="geometry" />
        </mxCell>
        <mxCell id="Ppk1s_15XKvyTgP_9-k_-66" value="&quot;Documento Subido&quot;" style="text;html=1;align=center;verticalAlign=middle;resizable=0;points=[];autosize=1;strokeColor=none;fillColor=none;" parent="1" vertex="1">
          <mxGeometry x="385" y="310" width="130" height="30" as="geometry" />
        </mxCell>
        <mxCell id="Ppk1s_15XKvyTgP_9-k_-67" value="3. Agregar Nota Interna" style="text;html=1;align=center;verticalAlign=middle;resizable=0;points=[];autosize=1;strokeColor=none;fillColor=none;" parent="1" vertex="1">
          <mxGeometry x="385" y="358" width="150" height="30" as="geometry" />
        </mxCell>
        <mxCell id="Ppk1s_15XKvyTgP_9-k_-68" value="Notas del Caso/Abogado" style="text;html=1;align=center;verticalAlign=middle;resizable=0;points=[];autosize=1;strokeColor=none;fillColor=none;" parent="1" vertex="1">
          <mxGeometry x="610" y="370" width="160" height="30" as="geometry" />
        </mxCell>
        <mxCell id="Ppk1s_15XKvyTgP_9-k_-69" value="Insertar notas" style="text;html=1;align=center;verticalAlign=middle;resizable=0;points=[];autosize=1;strokeColor=none;fillColor=none;" parent="1" vertex="1">
          <mxGeometry x="800" y="378" width="100" height="30" as="geometry" />
        </mxCell>
        <mxCell id="Ppk1s_15XKvyTgP_9-k_-71" value="Confirmacion" style="text;html=1;align=center;verticalAlign=middle;resizable=0;points=[];autosize=1;strokeColor=none;fillColor=none;" parent="1" vertex="1">
          <mxGeometry x="805" y="430" width="90" height="30" as="geometry" />
        </mxCell>
        <mxCell id="Ppk1s_15XKvyTgP_9-k_-73" value="Nota Creada" style="text;html=1;align=center;verticalAlign=middle;resizable=0;points=[];autosize=1;strokeColor=none;fillColor=none;" parent="1" vertex="1">
          <mxGeometry x="645" y="440" width="90" height="30" as="geometry" />
        </mxCell>
        <mxCell id="Ppk1s_15XKvyTgP_9-k_-75" value="Nota Visible en el caso" style="text;html=1;align=center;verticalAlign=middle;resizable=0;points=[];autosize=1;strokeColor=none;fillColor=none;" parent="1" vertex="1">
          <mxGeometry x="385" y="450" width="150" height="30" as="geometry" />
        </mxCell>
        <mxCell id="Ppk1s_15XKvyTgP_9-k_-76" value="" style="endArrow=classic;html=1;rounded=0;" parent="1" edge="1">
          <mxGeometry width="50" height="50" relative="1" as="geometry">
            <mxPoint x="130.7966666666665" y="757.23" as="sourcePoint" />
            <mxPoint x="610.63" y="757.23" as="targetPoint" />
          </mxGeometry>
        </mxCell>
        <mxCell id="Ppk1s_15XKvyTgP_9-k_-77" value="5. Consultar estado del caso" style="text;html=1;align=center;verticalAlign=middle;resizable=0;points=[];autosize=1;strokeColor=none;fillColor=none;" parent="1" vertex="1">
          <mxGeometry x="285.63" y="729.82" width="170" height="26" as="geometry" />
        </mxCell>
        <mxCell id="Ppk1s_15XKvyTgP_9-k_-78" value="" style="endArrow=classic;html=1;rounded=0;" parent="1" edge="1">
          <mxGeometry width="50" height="50" relative="1" as="geometry">
            <mxPoint x="610.7966666666665" y="779.82" as="sourcePoint" />
            <mxPoint x="770.63" y="779.82" as="targetPoint" />
          </mxGeometry>
        </mxCell>
        <mxCell id="Ppk1s_15XKvyTgP_9-k_-79" value="Ingreso por ID" style="text;html=1;align=center;verticalAlign=middle;resizable=0;points=[];autosize=1;strokeColor=none;fillColor=none;" parent="1" vertex="1">
          <mxGeometry x="640.8" y="747.82" width="100" height="30" as="geometry" />
        </mxCell>
        <mxCell id="Ppk1s_15XKvyTgP_9-k_-80" value="" style="endArrow=classic;html=1;rounded=0;" parent="1" edge="1">
          <mxGeometry width="50" height="50" relative="1" as="geometry">
            <mxPoint x="773.5466666666665" y="809.82" as="sourcePoint" />
            <mxPoint x="933.38" y="809.82" as="targetPoint" />
          </mxGeometry>
        </mxCell>
        <mxCell id="Ppk1s_15XKvyTgP_9-k_-81" value="Busqueda en casos" style="text;html=1;align=center;verticalAlign=middle;resizable=0;points=[];autosize=1;strokeColor=none;fillColor=none;" parent="1" vertex="1">
          <mxGeometry x="788.46" y="777.82" width="130" height="30" as="geometry" />
        </mxCell>
        <mxCell id="Ppk1s_15XKvyTgP_9-k_-83" value="Datos del caso" style="text;html=1;align=center;verticalAlign=middle;resizable=0;points=[];autosize=1;strokeColor=none;fillColor=none;" parent="1" vertex="1">
          <mxGeometry x="793.46" y="834.82" width="100" height="30" as="geometry" />
        </mxCell>
        <mxCell id="Ppk1s_15XKvyTgP_9-k_-85" value="Casos + Documentos" style="text;html=1;align=center;verticalAlign=middle;resizable=0;points=[];autosize=1;strokeColor=none;fillColor=none;" parent="1" vertex="1">
          <mxGeometry x="618.46" y="849.82" width="140" height="30" as="geometry" />
        </mxCell>
        <mxCell id="Ppk1s_15XKvyTgP_9-k_-87" value="Muestra estado y Documentos" style="text;html=1;align=center;verticalAlign=middle;resizable=0;points=[];autosize=1;strokeColor=none;fillColor=none;" parent="1" vertex="1">
          <mxGeometry x="273.46" y="849.82" width="190" height="30" as="geometry" />
        </mxCell>
        <mxCell id="Ppk1s_15XKvyTgP_9-k_-88" value="" style="html=1;verticalAlign=bottom;endArrow=open;dashed=1;endSize=8;curved=0;rounded=0;" parent="1" edge="1">
          <mxGeometry relative="1" as="geometry">
            <mxPoint x="609.92" y="200" as="sourcePoint" />
            <mxPoint x="290.08666666666653" y="200" as="targetPoint" />
          </mxGeometry>
        </mxCell>
        <mxCell id="Ppk1s_15XKvyTgP_9-k_-89" value="" style="html=1;verticalAlign=bottom;endArrow=open;dashed=1;endSize=8;curved=0;rounded=0;" parent="1" edge="1">
          <mxGeometry relative="1" as="geometry">
            <mxPoint x="769.92" y="190" as="sourcePoint" />
            <mxPoint x="610.0866666666665" y="190" as="targetPoint" />
          </mxGeometry>
        </mxCell>
        <mxCell id="Ppk1s_15XKvyTgP_9-k_-90" value="" style="html=1;verticalAlign=bottom;endArrow=open;dashed=1;endSize=8;curved=0;rounded=0;" parent="1" edge="1">
          <mxGeometry relative="1" as="geometry">
            <mxPoint x="929.83" y="180" as="sourcePoint" />
            <mxPoint x="769.9966666666666" y="180" as="targetPoint" />
          </mxGeometry>
        </mxCell>
        <mxCell id="Ppk1s_15XKvyTgP_9-k_-91" value="" style="html=1;verticalAlign=bottom;endArrow=open;dashed=1;endSize=8;curved=0;rounded=0;" parent="1" source="Ppk1s_15XKvyTgP_9-k_-29" target="Ppk1s_15XKvyTgP_9-k_-28" edge="1">
          <mxGeometry relative="1" as="geometry">
            <mxPoint x="900" y="350" as="sourcePoint" />
            <mxPoint x="820" y="350" as="targetPoint" />
            <Array as="points">
              <mxPoint x="900" y="320" />
            </Array>
          </mxGeometry>
        </mxCell>
        <mxCell id="Ppk1s_15XKvyTgP_9-k_-92" value="" style="html=1;verticalAlign=bottom;endArrow=open;dashed=1;endSize=8;curved=0;rounded=0;" parent="1" edge="1">
          <mxGeometry relative="1" as="geometry">
            <mxPoint x="769.9200000000001" y="328.58" as="sourcePoint" />
            <mxPoint x="610.0866666666666" y="328.58" as="targetPoint" />
          </mxGeometry>
        </mxCell>
        <mxCell id="Ppk1s_15XKvyTgP_9-k_-93" value="" style="html=1;verticalAlign=bottom;endArrow=open;dashed=1;endSize=8;curved=0;rounded=0;" parent="1" edge="1">
          <mxGeometry relative="1" as="geometry">
            <mxPoint x="609.92" y="339.17" as="sourcePoint" />
            <mxPoint x="290.08666666666653" y="339.17" as="targetPoint" />
          </mxGeometry>
        </mxCell>
        <mxCell id="Ppk1s_15XKvyTgP_9-k_-94" value="" style="html=1;verticalAlign=bottom;endArrow=open;dashed=1;endSize=8;curved=0;rounded=0;" parent="1" edge="1">
          <mxGeometry relative="1" as="geometry">
            <mxPoint x="929.92" y="460" as="sourcePoint" />
            <mxPoint x="770.0866666666665" y="460" as="targetPoint" />
          </mxGeometry>
        </mxCell>
        <mxCell id="Ppk1s_15XKvyTgP_9-k_-95" value="" style="html=1;verticalAlign=bottom;endArrow=open;dashed=1;endSize=8;curved=0;rounded=0;" parent="1" edge="1">
          <mxGeometry relative="1" as="geometry">
            <mxPoint x="770" y="470" as="sourcePoint" />
            <mxPoint x="610.1666666666665" y="470" as="targetPoint" />
          </mxGeometry>
        </mxCell>
        <mxCell id="Ppk1s_15XKvyTgP_9-k_-96" value="" style="html=1;verticalAlign=bottom;endArrow=open;dashed=1;endSize=8;curved=0;rounded=0;" parent="1" edge="1">
          <mxGeometry relative="1" as="geometry">
            <mxPoint x="609.92" y="480" as="sourcePoint" />
            <mxPoint x="286" y="480" as="targetPoint" />
          </mxGeometry>
        </mxCell>
        <mxCell id="Ppk1s_15XKvyTgP_9-k_-97" value="" style="html=1;verticalAlign=bottom;endArrow=open;dashed=1;endSize=8;curved=0;rounded=0;" parent="1" edge="1">
          <mxGeometry relative="1" as="geometry">
            <mxPoint x="928.7900000000001" y="864.4000000000001" as="sourcePoint" />
            <mxPoint x="768.4566666666666" y="864.4000000000001" as="targetPoint" />
          </mxGeometry>
        </mxCell>
        <mxCell id="Ppk1s_15XKvyTgP_9-k_-98" value="" style="html=1;verticalAlign=bottom;endArrow=open;dashed=1;endSize=8;curved=0;rounded=0;" parent="1" edge="1">
          <mxGeometry relative="1" as="geometry">
            <mxPoint x="768.38" y="879.82" as="sourcePoint" />
            <mxPoint x="608.5466666666665" y="879.82" as="targetPoint" />
          </mxGeometry>
        </mxCell>
        <mxCell id="Ppk1s_15XKvyTgP_9-k_-99" value="" style="html=1;verticalAlign=bottom;endArrow=open;dashed=1;endSize=8;curved=0;rounded=0;" parent="1" edge="1">
          <mxGeometry relative="1" as="geometry">
            <mxPoint x="608.46" y="889.82" as="sourcePoint" />
            <mxPoint x="128.6266666666665" y="889.82" as="targetPoint" />
          </mxGeometry>
        </mxCell>
        <mxCell id="jxX5MeN7IUv-UcOIcEX8-1" value="Juez" style="shape=umlLifeline;perimeter=lifelinePerimeter;whiteSpace=wrap;html=1;container=1;dropTarget=0;collapsible=0;recursiveResize=0;outlineConnect=0;portConstraint=eastwest;newEdgeStyle={&quot;curved&quot;:0,&quot;rounded&quot;:0};" vertex="1" parent="1">
          <mxGeometry x="-52" y="40" width="100" height="853" as="geometry" />
        </mxCell>
        <mxCell id="jxX5MeN7IUv-UcOIcEX8-2" value="" style="endArrow=classic;html=1;rounded=0;" edge="1" parent="1" target="Ppk1s_15XKvyTgP_9-k_-26">
          <mxGeometry width="50" height="50" relative="1" as="geometry">
            <mxPoint x="-0.996470588235361" y="560" as="sourcePoint" />
            <mxPoint x="291.18" y="560" as="targetPoint" />
          </mxGeometry>
        </mxCell>
        <mxCell id="jxX5MeN7IUv-UcOIcEX8-5" value="" style="html=1;verticalAlign=bottom;endArrow=open;dashed=1;endSize=8;curved=0;rounded=0;" edge="1" parent="1">
          <mxGeometry relative="1" as="geometry">
            <mxPoint x="290.96" y="502" as="sourcePoint" />
            <mxPoint x="-2" y="502" as="targetPoint" />
          </mxGeometry>
        </mxCell>
        <mxCell id="jxX5MeN7IUv-UcOIcEX8-6" value="Caso completo Visible" style="text;html=1;align=center;verticalAlign=middle;resizable=0;points=[];autosize=1;strokeColor=none;fillColor=none;" vertex="1" parent="1">
          <mxGeometry x="65" y="465" width="137" height="26" as="geometry" />
        </mxCell>
        <mxCell id="jxX5MeN7IUv-UcOIcEX8-7" value="4. Aprueba el caso" style="text;html=1;align=center;verticalAlign=middle;resizable=0;points=[];autosize=1;strokeColor=none;fillColor=none;" vertex="1" parent="1">
          <mxGeometry x="69" y="528" width="117" height="26" as="geometry" />
        </mxCell>
        <mxCell id="jxX5MeN7IUv-UcOIcEX8-8" value="" style="endArrow=classic;html=1;rounded=0;" edge="1" parent="1">
          <mxGeometry width="50" height="50" relative="1" as="geometry">
            <mxPoint x="449.82352941176464" y="583" as="sourcePoint" />
            <mxPoint x="610" y="583" as="targetPoint" />
          </mxGeometry>
        </mxCell>
        <mxCell id="jxX5MeN7IUv-UcOIcEX8-9" value="Programa Audiencia" style="text;html=1;align=center;verticalAlign=middle;resizable=0;points=[];autosize=1;strokeColor=none;fillColor=none;" vertex="1" parent="1">
          <mxGeometry x="468" y="547" width="126" height="26" as="geometry" />
        </mxCell>
        <mxCell id="jxX5MeN7IUv-UcOIcEX8-10" value="" style="endArrow=classic;html=1;rounded=0;" edge="1" parent="1">
          <mxGeometry width="50" height="50" relative="1" as="geometry">
            <mxPoint x="609.9135294117647" y="606" as="sourcePoint" />
            <mxPoint x="770.09" y="606" as="targetPoint" />
          </mxGeometry>
        </mxCell>
        <mxCell id="jxX5MeN7IUv-UcOIcEX8-11" value="*Audiencia" style="text;html=1;align=center;verticalAlign=middle;resizable=0;points=[];autosize=1;strokeColor=none;fillColor=none;" vertex="1" parent="1">
          <mxGeometry x="653" y="570" width="75" height="26" as="geometry" />
        </mxCell>
        <mxCell id="jxX5MeN7IUv-UcOIcEX8-12" value="Guardar Audiencia" style="text;html=1;align=center;verticalAlign=middle;resizable=0;points=[];autosize=1;strokeColor=none;fillColor=none;" vertex="1" parent="1">
          <mxGeometry x="794" y="586" width="117" height="26" as="geometry" />
        </mxCell>
        <mxCell id="jxX5MeN7IUv-UcOIcEX8-13" value="" style="endArrow=classic;html=1;rounded=0;" edge="1" parent="1">
          <mxGeometry width="50" height="50" relative="1" as="geometry">
            <mxPoint x="770.0035294117647" y="620" as="sourcePoint" />
            <mxPoint x="930.1800000000001" y="620" as="targetPoint" />
          </mxGeometry>
        </mxCell>
        <mxCell id="jxX5MeN7IUv-UcOIcEX8-14" value="" style="html=1;verticalAlign=bottom;endArrow=open;dashed=1;endSize=8;curved=0;rounded=0;" edge="1" parent="1">
          <mxGeometry relative="1" as="geometry">
            <mxPoint x="927.33" y="670" as="sourcePoint" />
            <mxPoint x="766.9966666666666" y="670" as="targetPoint" />
          </mxGeometry>
        </mxCell>
        <mxCell id="jxX5MeN7IUv-UcOIcEX8-15" value="Confirmacion" style="text;html=1;align=center;verticalAlign=middle;resizable=0;points=[];autosize=1;strokeColor=none;fillColor=none;" vertex="1" parent="1">
          <mxGeometry x="807.46" y="637" width="89" height="26" as="geometry" />
        </mxCell>
        <mxCell id="jxX5MeN7IUv-UcOIcEX8-16" value="" style="html=1;verticalAlign=bottom;endArrow=open;dashed=1;endSize=8;curved=0;rounded=0;" edge="1" parent="1">
          <mxGeometry relative="1" as="geometry">
            <mxPoint x="770.97" y="685" as="sourcePoint" />
            <mxPoint x="610.6366666666665" y="685" as="targetPoint" />
          </mxGeometry>
        </mxCell>
        <mxCell id="jxX5MeN7IUv-UcOIcEX8-17" value="Audiencia Creada" style="text;html=1;align=center;verticalAlign=middle;resizable=0;points=[];autosize=1;strokeColor=none;fillColor=none;" vertex="1" parent="1">
          <mxGeometry x="633.5" y="649" width="113" height="26" as="geometry" />
        </mxCell>
        <mxCell id="jxX5MeN7IUv-UcOIcEX8-18" value="" style="html=1;verticalAlign=bottom;endArrow=open;dashed=1;endSize=8;curved=0;rounded=0;" edge="1" parent="1" target="Ppk1s_15XKvyTgP_9-k_-24">
          <mxGeometry relative="1" as="geometry">
            <mxPoint x="610" y="702" as="sourcePoint" />
            <mxPoint x="449.6666666666665" y="702" as="targetPoint" />
          </mxGeometry>
        </mxCell>
        <mxCell id="jxX5MeN7IUv-UcOIcEX8-19" value="Notificar cliente/abogado" style="text;html=1;align=center;verticalAlign=middle;resizable=0;points=[];autosize=1;strokeColor=none;fillColor=none;" vertex="1" parent="1">
          <mxGeometry x="293.46" y="671" width="150" height="26" as="geometry" />
        </mxCell>
      </root>
    </mxGraphModel>
  </diagram>
</mxfile>
